<svg width="1415" height="2042" viewBox="0 0 1415 2042" fill="none" xmlns="http://www.w3.org/2000/svg">
<rect x="1227.18" y="86.6405" width="57.8858" height="57.8858" transform="rotate(45 1227.18 86.6405)" fill="black"/>
<rect x="293" y="37" width="30" height="30" fill="#EFE1BC"/>
<rect x="1017" y="47" width="30" height="30" fill="#F4F4F4"/>
<rect opacity="0.795533" x="41" y="101" width="16" height="16" fill="#F4F4F4"/>
<rect x="166.361" y="514.882" width="39.8858" height="39.8858" transform="rotate(45 166.361 514.882)" fill="#F4BEBD"/>
<circle cx="782.5" cy="101.5" r="18.5" fill="#D9F4F2"/>
<circle cx="661.5" cy="535.5" r="7" fill="white" stroke="#707070"/>
<circle cx="3.5" cy="5.5" r="5" fill="white" stroke="#707070"/>
<circle cx="97.5" cy="365.5" r="5" fill="white" stroke="#707070"/>
<circle cx="1300.5" cy="52.5" r="5" fill="white" stroke="#707070"/>
<rect opacity="0.306627" x="1262.2" y="1430.02" width="60.8122" height="60.8122" transform="rotate(45 1262.2 1430.02)" fill="white"/>
<rect opacity="0.418953" x="1329" y="1808" width="31" height="31" fill="white"/>
<rect opacity="0.642623" x="1313" y="1270" width="32" height="32" fill="#F4F4F4"/>
<rect opacity="0.344495" x="7" y="1439" width="17" height="17" fill="#F4F4F4"/>
<rect opacity="0.302394" x="288.747" y="1888.91" width="41.9022" height="41.9022" transform="rotate(45 288.747 1888.91)" fill="white"/>
<rect opacity="0.0607407" x="82.7062" y="1668.53" width="41.9022" height="39.8011" transform="rotate(45 82.7062 1668.53)" fill="black"/>
<ellipse cx="1396" cy="1665.5" rx="19" ry="19.5" fill="#AFCBAD"/>
<path d="M54.5 2036C54.5 2039.08 52.2214 2041.5 49.5 2041.5C46.7786 2041.5 44.5 2039.08 44.5 2036C44.5 2032.92 46.7786 2030.5 49.5 2030.5C52.2214 2030.5 54.5 2032.92 54.5 2036Z" stroke="#707070"/>
<path d="M200.5 1775C200.5 1778.08 198.221 1780.5 195.5 1780.5C192.779 1780.5 190.5 1778.08 190.5 1775C190.5 1771.92 192.779 1769.5 195.5 1769.5C198.221 1769.5 200.5 1771.92 200.5 1775Z" stroke="#707070"/>
<circle cx="1268" cy="1803" r="5.5" stroke="#707070"/>
</svg>
